<svg xmlns="http://www.w3.org/2000/svg" viewBox="0 0 200 200" width="200" height="200" data-hand-pivot="100 100"><g id="handLeftDraw-point-sideLeft" data-name="Point · Side (left)"><path id="handLeftDraw-point-sideLeftPalm" data-name="Palm" d="M 84.4 144 C 77.1 140.7 80.7 135.9 80 126 C 79.3 116.1 79.1 99.4 80.7 90 C 82.2 80.7 84.4 78.3 88.4 75 C 92.3 71.7 97 72 102 72 C 107 72 111.7 71.7 115.6 75 C 119.6 78.3 121.8 80.7 123.3 90 C 124.9 99.4 124.7 116.1 124 126 C 123.3 135.9 126.9 140.7 119.6 144 C 112.3 147.3 91.7 147.3 84.4 144 Z M 80.7 90 C 80.7 90 80.7 90 80.7 90 C 80.7 90 80.7 90 80.7 90" fill="#ffffff" stroke="#1b1b1b" stroke-width="6.2" stroke-linejoin="round" stroke-linecap="round" /><path id="handLeftDraw-point-sideLeftRing" data-name="Ring" d="M 99.3 72 C 100.9 68.8 103.4 60.4 107.2 56.5 C 110.9 52.7 113.2 53.9 117.5 53.3 C 121.9 52.7 124.5 53.1 128.4 53.7 C 132.3 54.4 134 52.8 136.4 56.5 C 138.9 60.2 141.5 66 140.3 71.6 C 139.1 77.3 134.4 81.5 130.6 83.9 C 126.9 86.3 124.1 83.3 122.1 83.2 C 120.2 83 121.5 83.1 121.2 83.2 C 120.8 83.3 120.4 84 120.4 83.7 C 120.3 83.4 120.9 82.1 121.1 81.7 M 118 78.1 C 117.9 77.2 118.2 74.1 117.4 72.7 C 116.6 71.2 113.9 69.9 113.2 69.3 C 113.9 69.9 116.6 71.2 117.4 72.7 C 118.2 74.1 117.9 77.2 118 78.1 Z" fill="#ffffff" stroke="#1b1b1b" stroke-width="6.2" stroke-linejoin="round" stroke-linecap="butt" /><path id="handLeftDraw-point-sideLeftMiddle" data-name="Middle" d="M 94.1 146.1 C 98.1 141.5 116.3 136 113.5 124.1 C 110.6 112.2 79.7 102.2 80.5 88.4 C 81.2 74.7 107.9 63.6 117.2 57.6 C 126.6 51.7 122.8 56.1 125.7 59.6 C 128.6 63.1 131.9 68.7 131.3 74.7 C 130.7 80.6 126.3 85.4 122.7 88.2 C 119.1 91.1 115.9 88.4 114 88.4 C 112.1 88.4 113.7 88.4 113.5 88.4 C 113.3 88.4 113.4 91.8 113 88.5 C 112.7 85.3 112 76.1 111.8 72.9 M 109.6 81.8 C 109.2 82.2 108.5 83.1 107.2 83.9 C 105.9 84.8 102.7 86.5 101.8 87 C 102.7 86.5 105.9 84.8 107.2 83.9 C 108.5 83.1 109.2 82.2 109.6 81.8 Z" fill="#ffffff" stroke="#1b1b1b" stroke-width="6.2" stroke-linejoin="round" stroke-linecap="butt" /><path id="handLeftDraw-point-sideLeftIndex" data-name="Index" d="M 79.6 105 C 79.3 100.1 78.6 91.3 78.3 81.6 C 78 71.9 78.4 67.9 78.1 58.2 C 77.8 48.5 77 41.4 76.9 34.8 C 76.8 28.3 74.6 29.8 77.5 26.5 C 80.4 23.2 85.2 19.3 90.9 19 C 96.6 18.7 101.8 22.1 105 25.1 C 108.2 28 106 28.9 106.5 33.3 C 106.9 37.7 106.9 40.9 107.2 46.3 C 107.4 51.7 107.3 54 107.8 59.4 C 108.3 64.7 109.2 69.6 109.6 72.3 M 78.3 61.2 C 78.3 61.2 78.3 61.2 78.3 61.2 C 78.3 61.2 78.3 61.2 78.3 61.2 C 78.3 61.2 78.3 61.2 78.3 61.2 C 78.3 61.2 78.3 61.2 78.3 61.2 Z" fill="#ffffff" stroke="#1b1b1b" stroke-width="6.2" stroke-linejoin="round" stroke-linecap="butt" /><path id="handLeftDraw-point-sideLeftThumb" data-name="Thumb" d="M 110.8 113.2 C 108.1 112.1 101.4 109.1 97.7 107.9 C 94.1 106.8 95 107.6 93.1 107.7 C 91.1 107.7 91 107.9 88.3 108 C 85.5 108.1 83.3 110.8 79.7 108.1 C 76.1 105.5 71.6 100.9 70.8 95.1 C 70 89.3 73 83.7 75.8 80.1 C 78.5 76.6 80.5 78.5 84 77.9 C 87.6 77.3 89.2 77.3 92.8 77.3 C 96.4 77.2 94.3 76.2 101.3 77.7 C 108.3 79.3 121.4 83.3 126.6 84.8 M 110.8 113.2 C 112.6 111 119 104.5 121.6 99.7 C 124.3 95 125.8 87.3 126.6 84.8 C 125.8 87.3 124.3 95 121.6 99.7 C 119 104.5 112.6 111 110.8 113.2 Z" fill="#ffffff" stroke="#1b1b1b" stroke-width="6.2" stroke-linejoin="round" stroke-linecap="butt" /><path id="handLeftDraw-point-sideLeftCuff" data-name="Cuff" d="M 79.8 138 L 124.2 138 C 130.2 138 135 142.8 135 148.8 L 135 153.2 C 135 159.2 130.2 164 124.2 164 L 79.8 164 C 73.8 164 69 159.2 69 153.2 L 69 148.8 C 69 142.8 73.8 138 79.8 138 Z" fill="#ffffff" stroke="#1b1b1b" stroke-width="6.2" stroke-linejoin="round" stroke-linecap="round" /></g></svg>
