<svg xmlns="http://www.w3.org/2000/svg" viewBox="0 0 200 200" width="200" height="200" data-hand-pivot="100 100"><g id="handRightDraw-relaxed-threeQuarterLeft" data-name="Relaxed · Three quarter (left)"><path id="handRightDraw-relaxed-threeQuarterLeftPalm" data-name="Palm" d="M 125.8 144 C 136 140.7 131 136.1 132 126 C 133 115.9 133.2 98.5 131.1 89 C 128.9 79.5 125.7 77.7 120.2 74 C 114.7 70.3 108 69 101 69 C 94 69 87.3 70.3 81.8 74 C 76.3 77.7 73.1 79.5 70.9 89 C 68.8 98.5 69 115.9 70 126 C 71 136.1 66 140.7 76.2 144 C 86.4 147.3 115.6 147.3 125.8 144 Z M 131.1 89 C 131.1 89 131.1 89 131.1 89 C 131.1 89 131.1 89 131.1 89" fill="#ffffff" stroke="#1b1b1b" stroke-width="6.2" stroke-linejoin="round" stroke-linecap="round" /><path id="handRightDraw-relaxed-threeQuarterLeftRing" data-name="Ring" d="M 108.7 69.6 C 108.7 69.2 108.5 68.8 108.6 67.5 C 108.6 66.3 108.8 65.2 109 63.6 C 109.3 61.9 109.4 62.3 109.6 59.6 C 109.9 57 112.7 54.6 110 50.8 C 107.4 47 102.8 42.2 96.8 41.2 C 90.8 40.2 84.9 43.2 81.2 45.9 C 77.4 48.6 79.4 51.1 78.6 54.4 C 77.9 57.7 77.9 58.8 77.5 62 C 77.1 65.1 77.1 66.2 76.8 69.6 C 76.5 73 76.2 76.5 76.1 78.3 M 108.3 70.1 C 108.3 70.1 108.3 70.1 108.3 70.1 C 108.3 70.1 108.3 70.1 108.3 70.1 C 108.3 70.1 108.3 70.1 108.3 70.1 C 108.3 70.1 108.3 70.1 108.3 70.1 Z" fill="#ffffff" stroke="#1b1b1b" stroke-width="6.2" stroke-linejoin="round" stroke-linecap="butt" /><path id="handRightDraw-relaxed-threeQuarterLeftMiddle" data-name="Middle" d="M 118.1 72.7 C 117.9 71.3 117.4 68.7 117.4 65.6 C 117.4 62.6 117.8 61.1 118.2 57.9 C 118.6 54.6 119 53.6 119.3 50.1 C 119.6 46.6 122.4 44.9 119.6 41 C 116.9 37.1 112.1 32.2 106 31.2 C 99.9 30.2 93.8 33.3 90 36.1 C 86.2 39 88.2 41.2 87.4 44.9 C 86.6 48.6 86.6 50.1 86.1 53.9 C 85.7 57.6 85.6 59 85.2 62.9 C 84.8 66.8 84.3 70.6 84.1 72.6 M 117.5 64.2 C 117.5 64.2 117.5 64.2 117.5 64.2 C 117.5 64.2 117.5 64.2 117.5 64.2 C 117.5 64.2 117.5 64.2 117.5 64.2 C 117.5 64.2 117.5 64.2 117.5 64.2 Z" fill="#ffffff" stroke="#1b1b1b" stroke-width="6.2" stroke-linejoin="round" stroke-linecap="butt" /><path id="handRightDraw-relaxed-threeQuarterLeftIndex" data-name="Index" d="M 127.6 80.3 C 127.4 78.4 126.7 75.1 126.7 71.3 C 126.8 67.6 127.2 65.9 127.7 62.2 C 128.2 58.4 128.8 56.8 129.2 53.1 C 129.6 49.3 132.4 47.9 129.8 43.9 C 127.1 39.9 122.5 34.9 116.4 33.8 C 110.3 32.6 104.1 35.5 100.2 38.3 C 96.2 41 98.2 43.7 97.3 47 C 96.5 50.2 96.6 51.1 96.1 54.1 C 95.7 57 95.7 58 95.1 61.2 C 94.6 64.4 93.9 67.8 93.6 69.6 M 127.2 66.1 C 127.2 66.1 127.2 66.1 127.2 66.1 C 127.2 66.1 127.2 66.1 127.2 66.1 C 127.2 66.1 127.2 66.1 127.2 66.1 C 127.2 66.1 127.2 66.1 127.2 66.1 Z" fill="#ffffff" stroke="#1b1b1b" stroke-width="6.2" stroke-linejoin="round" stroke-linecap="butt" /><path id="handRightDraw-relaxed-threeQuarterLeftThumb" data-name="Thumb" d="M 132.6 116 C 133.4 114.7 134.5 112.1 136.4 109.8 C 138.2 107.6 139.4 107 141.6 105 C 143.8 103.1 144.5 102.8 147 100.5 C 149.6 98.1 153.2 98.6 153.8 93.6 C 154.4 88.6 154.1 81.4 150 76.2 C 146 71.1 139 69.2 134 68.7 C 129 68.1 131.9 68.8 125.7 73.7 C 119.6 78.6 112.4 83.9 104.3 92.4 C 96.3 100.9 93.9 107.1 86.9 114.9 C 79.8 122.7 73.5 127.1 70.1 130.3 M 139.9 106.6 C 139.9 106.6 139.9 106.6 139.9 106.6 C 139.9 106.6 139.9 106.6 139.9 106.6 C 139.9 106.6 139.9 106.6 139.9 106.6 C 139.9 106.6 139.9 106.6 139.9 106.6 Z" fill="#ffffff" stroke="#1b1b1b" stroke-width="6.2" stroke-linejoin="round" stroke-linecap="butt" /><path id="handRightDraw-relaxed-threeQuarterLeftCuff" data-name="Cuff" d="M 125.5 138 L 76.5 138 C 70.5 138 65.7 142.8 65.7 148.8 L 65.7 153.2 C 65.7 159.2 70.5 164 76.5 164 L 125.5 164 C 131.5 164 136.3 159.2 136.3 153.2 L 136.3 148.8 C 136.3 142.8 131.5 138 125.5 138 Z" fill="#ffffff" stroke="#1b1b1b" stroke-width="6.2" stroke-linejoin="round" stroke-linecap="round" /></g></svg>
