<svg xmlns="http://www.w3.org/2000/svg" viewBox="0 0 200 200" width="200" height="200" data-hand-pivot="100 100"><path id="handLeftStyle-fist" data-name="Fist" d="M 92 150 C 77.4 150 68.4 148.6 65 146 L 60.2 141.8 L 34.2 115.8 C 27.6 109.4 27.6 98.6 34.2 92.2 C 40.6 85.6 51.4 85.6 57.8 92.2 L 83.8 118.2 L 63.2 102.4 C 55.8 96.8 51.8 94.6 51.2 96 L 50.4 98 L 50.4 74 C 50.4 67.2 56 61.6 62.8 61.6 C 69.6 61.6 75.2 67.2 75.2 74 L 75.2 98 L 75.2 95 C 75.2 93 75.2 93 75.2 95 L 75.2 98 L 75.2 70 C 75.2 63.2 80.8 57.6 87.6 57.6 C 94.4 57.6 100 63.2 100 70 L 100 98 L 100 94 C 100 91.4 100 91.4 100 94 L 100 98 L 100 72 C 100 65.2 105.6 59.6 112.4 59.6 C 119.2 59.6 124.8 65.2 124.8 72 L 124.8 98 L 124.8 95 C 124.8 93 125 93 125.6 95 L 126.4 98 L 126.4 78 C 126.4 72 131.2 67.2 137.2 67.2 C 143.2 67.2 148 72 148 78 L 148 98 L 148 95 C 148 93 148.6 95.6 149.6 103 L 149.6 103 C 150.6 110.4 147.6 120 140.6 132 L 140.6 132 C 133.6 144 122.6 150 108 150 L 92 150 Z" fill="#ffffff" fill-rule="evenodd" stroke="#1b1b1b" stroke-width="7.6" stroke-linejoin="round" stroke-linecap="round" /></svg>
