<svg xmlns="http://www.w3.org/2000/svg" width="1350" height="190" viewBox="0 0 1350 190" style="color:#333">
<g transform="translate(75 96)"><g transform="scale(1.55)"><path d="M -16 22 C -22.6 20.4 -19.4 18.1 -20 13 C -20.6 7.9 -20.8 -1.1 -19.4 -6 C -18 -10.9 -16 -11.6 -12.4 -13.5 C -8.8 -15.4 -4.5 -16.5 0 -16.5 C 4.5 -16.5 8.8 -15.4 12.4 -13.5 C 16 -11.6 18 -10.9 19.4 -6 C 20.8 -1.1 20.6 7.9 20 13 C 19.4 18.1 22.6 20.4 16 22 C 9.4 23.7 -9.4 23.7 -16 22 Z M -19.4 -6 C -19.4 -6 -19.4 -6 -19.4 -6 C -19.4 -6 -19.4 -6 -19.4 -6" fill="#ffffff" stroke="#1b1b1b" stroke-width="3.1" stroke-linejoin="round" stroke-linecap="round"/><path d="M 3.8 -16.2 C 4.2 -17.2 4.9 -18.9 5.5 -20.7 C 6.1 -22.6 6.2 -23.5 6.7 -25.4 C 7.2 -27.3 7.2 -28.2 7.8 -30 C 8.4 -31.9 7.4 -33.2 9.5 -34.5 C 11.7 -35.8 14.9 -37.1 18.1 -36.3 C 21.2 -35.5 23.5 -32.8 24.7 -30.7 C 26 -28.5 24.6 -28.4 24.1 -26 C 23.7 -23.6 23.1 -22 22.4 -19.1 C 21.8 -16.3 21.5 -15.1 20.9 -12.2 C 20.3 -9.3 19.8 -6.7 19.6 -5.2 M 5.4 -20.4 C 5.4 -20.4 5.4 -20.4 5.4 -20.4 C 5.4 -20.4 5.4 -20.4 5.4 -20.4 C 5.4 -20.4 5.4 -20.4 5.4 -20.4 C 5.4 -20.4 5.4 -20.4 5.4 -20.4 Z" fill="#ffffff" stroke="#1b1b1b" stroke-width="3.1" stroke-linejoin="round" stroke-linecap="butt"/><path d="M -9.4 -14.8 C -9.3 -16 -8.9 -18.2 -8.8 -20.6 C -8.7 -22.9 -8.8 -23.9 -8.8 -26.3 C -8.8 -28.6 -8.9 -29.8 -8.8 -32 C -8.7 -34.2 -10 -35.1 -8.2 -36.9 C -6.4 -38.8 -3.4 -41 0 -41 C 3.4 -41 6.4 -38.8 8.2 -36.9 C 10 -35.1 8.7 -34.2 8.8 -32 C 8.9 -29.8 8.8 -28.6 8.8 -26.3 C 8.8 -23.9 8.7 -22.9 8.8 -20.6 C 8.9 -18.2 9.3 -16 9.4 -14.8 M -8.8 -20.9 C -8.8 -20.9 -8.8 -20.9 -8.8 -20.9 C -8.8 -20.9 -8.8 -20.9 -8.8 -20.9 C -8.8 -20.9 -8.8 -20.9 -8.8 -20.9 C -8.8 -20.9 -8.8 -20.9 -8.8 -20.9 Z" fill="#ffffff" stroke="#1b1b1b" stroke-width="3.1" stroke-linejoin="round" stroke-linecap="butt"/><path d="M -19.7 -4.8 C -20 -6.3 -20.5 -9 -21.1 -12 C -21.7 -15 -22 -16.3 -22.7 -19.2 C -23.4 -22.2 -24 -23.9 -24.5 -26.4 C -24.9 -28.9 -26.3 -29 -25 -31.2 C -23.8 -33.4 -21.4 -36.2 -18.2 -37 C -15 -37.8 -11.7 -36.4 -9.5 -35.1 C -7.4 -33.8 -8.4 -32.5 -7.8 -30.6 C -7.2 -28.6 -7.1 -27.7 -6.6 -25.8 C -6.1 -23.8 -6 -22.9 -5.4 -20.9 C -4.7 -19 -3.9 -17.2 -3.6 -16.3 M -22 -16.5 C -22 -16.5 -22 -16.5 -22 -16.5 C -22 -16.5 -22 -16.5 -22 -16.5 C -22 -16.5 -22 -16.5 -22 -16.5 C -22 -16.5 -22 -16.5 -22 -16.5 Z" fill="#ffffff" stroke="#1b1b1b" stroke-width="3.1" stroke-linejoin="round" stroke-linecap="butt"/><path d="M -20.3 10.3 C -21 9.6 -22.4 8.2 -24.1 6.9 C -25.7 5.5 -26.5 5.1 -28.2 3.9 C -30 2.7 -30.8 2.3 -32.4 1 C -34 -0.3 -35.5 0.3 -36 -2.2 C -36.5 -4.7 -36.5 -8.4 -34.7 -11.1 C -32.8 -13.8 -29.3 -14.9 -26.8 -15.3 C -24.3 -15.8 -23.8 -13.8 -22.5 -13.1 C -21.3 -12.4 -21.6 -12.4 -20.9 -11.9 C -20.3 -11.5 -20 -11.2 -19.3 -10.8 C -18.6 -10.4 -17.8 -10.3 -17.3 -10.2 M -25.5 5.8 C -25.5 5.8 -25.5 5.8 -25.5 5.8 C -25.5 5.8 -25.5 5.8 -25.5 5.8 C -25.5 5.8 -25.5 5.8 -25.5 5.8 C -25.5 5.8 -25.5 5.8 -25.5 5.8 Z" fill="#ffffff" stroke="#1b1b1b" stroke-width="3.1" stroke-linejoin="round" stroke-linecap="butt"/><path d="M -17.4 19 L 17.4 19 C 20.4 19 22.8 21.4 22.8 24.4 L 22.8 26.6 C 22.8 29.6 20.4 32 17.4 32 L -17.4 32 C -20.4 32 -22.8 29.6 -22.8 26.6 L -22.8 24.4 C -22.8 21.4 -20.4 19 -17.4 19 Z" fill="#ffffff" stroke="#1b1b1b" stroke-width="3.1" stroke-linejoin="round" stroke-linecap="round"/></g><text y="80" text-anchor="middle" font-family="JetBrains Mono, ui-monospace, monospace" font-size="11" fill="currentColor">curl 0</text></g>
<g transform="translate(225 96)"><g transform="scale(1.55)"><path d="M -16 22 C -22.6 20.4 -19.4 18.1 -20 13 C -20.6 7.9 -20.8 -1.1 -19.4 -6 C -18 -10.9 -16 -11.6 -12.4 -13.5 C -8.8 -15.4 -4.5 -16.5 0 -16.5 C 4.5 -16.5 8.8 -15.4 12.4 -13.5 C 16 -11.6 18 -10.9 19.4 -6 C 20.8 -1.1 20.6 7.9 20 13 C 19.4 18.1 22.6 20.4 16 22 C 9.4 23.7 -9.4 23.7 -16 22 Z M -19.4 -6 C -19.4 -6 -19.4 -6 -19.4 -6 C -19.4 -6 -19.4 -6 -19.4 -6" fill="#ffffff" stroke="#1b1b1b" stroke-width="3.1" stroke-linejoin="round" stroke-linecap="round"/><path d="M 3.3 -16.3 C 3.5 -16.9 4.1 -18 4.5 -19.2 C 4.9 -20.4 4.9 -21 5.2 -22.2 C 5.6 -23.5 5.5 -23.6 6 -25.2 C 6.5 -26.8 5.6 -28.6 7.8 -30 C 10.1 -31.4 13.6 -32.8 17 -32 C 20.4 -31.1 22.8 -28.2 24.1 -25.9 C 25.5 -23.6 23.9 -23.1 23.5 -20.9 C 23.1 -18.7 22.7 -17.6 22.1 -15.3 C 21.6 -13 21.3 -12.1 20.8 -9.8 C 20.3 -7.4 20 -5.3 19.8 -4.1 M 4.7 -19.9 C 4.7 -19.9 4.7 -19.9 4.7 -19.9 C 4.7 -19.9 4.7 -19.9 4.7 -19.9 C 4.7 -19.9 4.7 -19.9 4.7 -19.9 C 4.7 -19.9 4.7 -19.9 4.7 -19.9 Z" fill="#ffffff" stroke="#1b1b1b" stroke-width="3.1" stroke-linejoin="round" stroke-linecap="butt"/><path d="M -10 -14.6 C -9.9 -15.4 -9.6 -16.9 -9.5 -18.5 C -9.4 -20.1 -9.5 -20.8 -9.5 -22.4 C -9.5 -24 -9.6 -24.4 -9.5 -26.3 C -9.3 -28.2 -10.8 -29.6 -8.8 -31.6 C -6.8 -33.6 -3.6 -35.9 0 -35.9 C 3.6 -35.9 6.8 -33.6 8.8 -31.6 C 10.8 -29.6 9.3 -28.2 9.5 -26.3 C 9.6 -24.4 9.5 -24 9.5 -22.4 C 9.5 -20.8 9.4 -20.1 9.5 -18.5 C 9.6 -16.9 9.9 -15.4 10 -14.6 M -9.5 -20.1 C -9.5 -20.1 -9.5 -20.1 -9.5 -20.1 C -9.5 -20.1 -9.5 -20.1 -9.5 -20.1 C -9.5 -20.1 -9.5 -20.1 -9.5 -20.1 C -9.5 -20.1 -9.5 -20.1 -9.5 -20.1 Z" fill="#ffffff" stroke="#1b1b1b" stroke-width="3.1" stroke-linejoin="round" stroke-linecap="butt"/><path d="M -19.9 -3.5 C -20.1 -4.8 -20.5 -7 -21 -9.5 C -21.5 -11.9 -21.8 -12.9 -22.4 -15.3 C -22.9 -17.7 -23.4 -18.9 -23.8 -21.1 C -24.2 -23.4 -25.8 -24 -24.4 -26.3 C -23.1 -28.7 -20.6 -31.7 -17.1 -32.5 C -13.7 -33.4 -10.1 -31.9 -7.7 -30.5 C -5.4 -29.1 -6.4 -27.3 -5.9 -25.6 C -5.3 -24 -5.4 -23.8 -5.1 -22.5 C -4.8 -21.2 -4.7 -20.6 -4.3 -19.3 C -3.9 -18.1 -3.3 -17 -3.1 -16.3 M -22.4 -15.7 C -22.4 -15.7 -22.4 -15.7 -22.4 -15.7 C -22.4 -15.7 -22.4 -15.7 -22.4 -15.7 C -22.4 -15.7 -22.4 -15.7 -22.4 -15.7 C -22.4 -15.7 -22.4 -15.7 -22.4 -15.7 Z" fill="#ffffff" stroke="#1b1b1b" stroke-width="3.1" stroke-linejoin="round" stroke-linecap="butt"/><path d="M -20.3 10.3 C -21 9.6 -22.4 8.2 -24.1 6.9 C -25.7 5.5 -26.5 5.1 -28.2 3.9 C -30 2.7 -30.8 2.3 -32.4 1 C -34 -0.3 -35.5 0.3 -36 -2.2 C -36.5 -4.7 -36.5 -8.4 -34.7 -11.1 C -32.8 -13.8 -29.3 -14.9 -26.8 -15.3 C -24.3 -15.8 -23.8 -13.8 -22.5 -13.1 C -21.3 -12.4 -21.6 -12.4 -20.9 -11.9 C -20.3 -11.5 -20 -11.2 -19.3 -10.8 C -18.6 -10.4 -17.8 -10.3 -17.3 -10.2 M -25.5 5.8 C -25.5 5.8 -25.5 5.8 -25.5 5.8 C -25.5 5.8 -25.5 5.8 -25.5 5.8 C -25.5 5.8 -25.5 5.8 -25.5 5.8 C -25.5 5.8 -25.5 5.8 -25.5 5.8 Z" fill="#ffffff" stroke="#1b1b1b" stroke-width="3.1" stroke-linejoin="round" stroke-linecap="butt"/><path d="M -17.4 19 L 17.4 19 C 20.4 19 22.8 21.4 22.8 24.4 L 22.8 26.6 C 22.8 29.6 20.4 32 17.4 32 L -17.4 32 C -20.4 32 -22.8 29.6 -22.8 26.6 L -22.8 24.4 C -22.8 21.4 -20.4 19 -17.4 19 Z" fill="#ffffff" stroke="#1b1b1b" stroke-width="3.1" stroke-linejoin="round" stroke-linecap="round"/></g><text y="80" text-anchor="middle" font-family="JetBrains Mono, ui-monospace, monospace" font-size="11" fill="currentColor">curl 0.25</text></g>
<g transform="translate(375 96)"><g transform="scale(1.55)"><path d="M -16 22 C -22.6 20.4 -19.4 18.1 -20 13 C -20.6 7.9 -20.8 -1.1 -19.4 -6 C -18 -10.9 -16 -11.6 -12.4 -13.5 C -8.8 -15.4 -4.5 -16.5 0 -16.5 C 4.5 -16.5 8.8 -15.4 12.4 -13.5 C 16 -11.6 18 -10.9 19.4 -6 C 20.8 -1.1 20.6 7.9 20 13 C 19.4 18.1 22.6 20.4 16 22 C 9.4 23.7 -9.4 23.7 -16 22 Z M -19.4 -6 C -19.4 -6 -19.4 -6 -19.4 -6 C -19.4 -6 -19.4 -6 -19.4 -6" fill="#ffffff" stroke="#1b1b1b" stroke-width="3.1" stroke-linejoin="round" stroke-linecap="round"/><path d="M 2.8 -16.4 C 2.9 -16.6 3.2 -17.1 3.5 -17.7 C 3.7 -18.2 3.7 -18.5 3.8 -19 C 3.9 -19.6 3.7 -19.1 4.1 -20.4 C 4.6 -21.8 3.7 -24 6.1 -25.5 C 8.5 -27 12.3 -28.5 15.9 -27.6 C 19.5 -26.7 22.1 -23.6 23.5 -21.2 C 25 -18.7 23.2 -17.8 22.9 -15.7 C 22.5 -13.7 22.3 -13.2 21.8 -11.5 C 21.4 -9.7 21.1 -9 20.8 -7.2 C 20.4 -5.4 20.2 -3.7 20 -2.8 M 4.3 -18.6 C 4.4 -18.6 4.8 -18.7 5.1 -18.6 C 5.4 -18.5 5.7 -18.3 5.9 -18.2 C 5.7 -18.3 5.4 -18.5 5.1 -18.6 C 4.8 -18.7 4.4 -18.6 4.3 -18.6 Z" fill="#ffffff" stroke="#1b1b1b" stroke-width="3.1" stroke-linejoin="round" stroke-linecap="butt"/><path d="M -10.5 -14.4 C -10.4 -14.8 -10.2 -15.6 -10.1 -16.5 C -10 -17.3 -10.1 -17.6 -10.1 -18.5 C -10.1 -19.3 -10.3 -18.9 -10.1 -20.5 C -10 -22.1 -11.5 -24.1 -9.4 -26.2 C -7.3 -28.3 -3.9 -30.9 0 -30.9 C 3.9 -30.9 7.3 -28.3 9.4 -26.2 C 11.5 -24.1 10 -22.1 10.1 -20.5 C 10.3 -18.9 10.1 -19.3 10.1 -18.5 C 10.1 -17.6 10 -17.3 10.1 -16.5 C 10.2 -15.6 10.4 -14.8 10.5 -14.4 M -9.5 -18.5 C -9.4 -18.5 -9 -18.7 -8.7 -18.7 C -8.4 -18.7 -8 -18.5 -7.8 -18.5 C -8 -18.5 -8.4 -18.7 -8.7 -18.7 C -9 -18.7 -9.4 -18.5 -9.5 -18.5 Z" fill="#ffffff" stroke="#1b1b1b" stroke-width="3.1" stroke-linejoin="round" stroke-linecap="butt"/><path d="M -20.1 -2.2 C -20.3 -3.1 -20.5 -4.9 -20.9 -6.8 C -21.3 -8.7 -21.6 -9.5 -22 -11.3 C -22.5 -13.2 -22.8 -13.8 -23.2 -15.9 C -23.5 -18 -25.3 -18.9 -23.8 -21.4 C -22.3 -23.9 -19.7 -27.1 -16 -28.1 C -12.3 -29 -8.5 -27.4 -6 -25.9 C -3.5 -24.3 -4.5 -22 -4 -20.7 C -3.5 -19.3 -3.8 -19.8 -3.6 -19.2 C -3.5 -18.6 -3.5 -18.3 -3.2 -17.7 C -3 -17.2 -2.7 -16.7 -2.5 -16.4 M -22.2 -14.3 C -22 -14.3 -21.7 -14.6 -21.4 -14.7 C -21.1 -14.7 -20.7 -14.7 -20.5 -14.7 C -20.7 -14.7 -21.1 -14.7 -21.4 -14.7 C -21.7 -14.6 -22 -14.3 -22.2 -14.3 Z" fill="#ffffff" stroke="#1b1b1b" stroke-width="3.1" stroke-linejoin="round" stroke-linecap="butt"/><path d="M -20.3 10.3 C -21 9.6 -22.4 8.2 -24.1 6.9 C -25.7 5.5 -26.5 5.1 -28.2 3.9 C -30 2.7 -30.8 2.3 -32.4 1 C -34 -0.3 -35.5 0.3 -36 -2.2 C -36.5 -4.7 -36.5 -8.4 -34.7 -11.1 C -32.8 -13.8 -29.3 -14.9 -26.8 -15.3 C -24.3 -15.8 -23.8 -13.8 -22.5 -13.1 C -21.3 -12.4 -21.6 -12.4 -20.9 -11.9 C -20.3 -11.5 -20 -11.2 -19.3 -10.8 C -18.6 -10.4 -17.8 -10.3 -17.3 -10.2 M -25.5 5.8 C -25.5 5.8 -25.5 5.8 -25.5 5.8 C -25.5 5.8 -25.5 5.8 -25.5 5.8 C -25.5 5.8 -25.5 5.8 -25.5 5.8 C -25.5 5.8 -25.5 5.8 -25.5 5.8 Z" fill="#ffffff" stroke="#1b1b1b" stroke-width="3.1" stroke-linejoin="round" stroke-linecap="butt"/><path d="M -17.4 19 L 17.4 19 C 20.4 19 22.8 21.4 22.8 24.4 L 22.8 26.6 C 22.8 29.6 20.4 32 17.4 32 L -17.4 32 C -20.4 32 -22.8 29.6 -22.8 26.6 L -22.8 24.4 C -22.8 21.4 -20.4 19 -17.4 19 Z" fill="#ffffff" stroke="#1b1b1b" stroke-width="3.1" stroke-linejoin="round" stroke-linecap="round"/></g><text y="80" text-anchor="middle" font-family="JetBrains Mono, ui-monospace, monospace" font-size="11" fill="currentColor">curl 0.5</text></g>
<g transform="translate(525 96)"><g transform="scale(1.55)"><path d="M -16 22 C -22.6 20.4 -19.4 18.1 -20 13 C -20.6 7.9 -20.8 -1.1 -19.4 -6 C -18 -10.9 -16 -11.6 -12.4 -13.5 C -8.8 -15.4 -4.5 -16.5 0 -16.5 C 4.5 -16.5 8.8 -15.4 12.4 -13.5 C 16 -11.6 18 -10.9 19.4 -6 C 20.8 -1.1 20.6 7.9 20 13 C 19.4 18.1 22.6 20.4 16 22 C 9.4 23.7 -9.4 23.7 -16 22 Z M -19.4 -6 C -19.4 -6 -19.4 -6 -19.4 -6 C -19.4 -6 -19.4 -6 -19.4 -6" fill="#ffffff" stroke="#1b1b1b" stroke-width="3.1" stroke-linejoin="round" stroke-linecap="round"/><path d="M -2.3 1.9 C -1.6 -0.5 0.1 -6.9 0.9 -9.9 C 1.7 -12.9 1.3 -11.5 1.6 -12.7 C 1.9 -13.9 1.7 -13.9 2.3 -15.6 C 2.9 -17.3 1.8 -19.4 4.4 -21 C 7 -22.6 11 -24.3 14.8 -23.3 C 18.7 -22.3 21.4 -19 23 -16.4 C 24.5 -13.8 22.6 -12.4 22.3 -10.6 C 22 -8.8 21.8 -8.9 21.5 -7.7 C 21.2 -6.5 21.6 -7.9 20.8 -4.9 C 20.1 -1.9 18.6 4.5 18.1 7 M -2.3 1.9 C -0.6 2.7 4 5.6 7.4 6.4 C 10.8 7.3 16.3 6.9 18.1 7 C 16.3 6.9 10.8 7.3 7.4 6.4 C 4 5.6 -0.6 2.7 -2.3 1.9 Z" fill="#ffffff" stroke="#1b1b1b" stroke-width="3.1" stroke-linejoin="round" stroke-linecap="butt"/><path d="M -11 4.8 C -10.9 2.1 -10.8 -4.8 -10.8 -8.2 C -10.7 -11.5 -10.8 -10.1 -10.8 -11.4 C -10.8 -12.8 -10.9 -12.9 -10.8 -14.8 C -10.6 -16.7 -12.3 -18.6 -10 -20.8 C -7.8 -23.1 -4.1 -25.8 0 -25.8 C 4.1 -25.8 7.8 -23.1 10 -20.8 C 12.3 -18.6 10.6 -16.7 10.8 -14.8 C 10.9 -12.9 10.8 -12.8 10.8 -11.4 C 10.8 -10.1 10.7 -11.5 10.8 -8.2 C 10.8 -4.8 10.9 2.1 11 4.8 M -11 4.8 C -9.1 5.2 -3.7 7 0 7 C 3.7 7 9.1 5.2 11 4.8 C 9.1 5.2 3.7 7 0 7 C -3.7 7 -9.1 5.2 -11 4.8 Z" fill="#ffffff" stroke="#1b1b1b" stroke-width="3.1" stroke-linejoin="round" stroke-linecap="butt"/><path d="M -18.2 7.5 C -18.8 5 -20.3 -1.6 -21 -4.7 C -21.8 -7.8 -21.5 -6.4 -21.8 -7.6 C -22.1 -8.8 -22.2 -8.8 -22.5 -10.6 C -22.8 -12.4 -24.8 -13.8 -23.2 -16.5 C -21.6 -19.2 -18.8 -22.6 -14.9 -23.6 C -11 -24.6 -6.9 -22.9 -4.2 -21.2 C -1.6 -19.6 -2.7 -17.5 -2.1 -15.7 C -1.5 -13.9 -1.6 -13.9 -1.3 -12.7 C -1 -11.5 -1.4 -12.9 -0.6 -9.8 C 0.2 -6.7 1.9 -0.2 2.6 2.3 M -18.2 7.5 C -16.4 7.4 -10.8 7.8 -7.3 6.9 C -3.8 6.1 1 3 2.6 2.3 C 1 3 -3.8 6.1 -7.3 6.9 C -10.8 7.8 -16.4 7.4 -18.2 7.5 Z" fill="#ffffff" stroke="#1b1b1b" stroke-width="3.1" stroke-linejoin="round" stroke-linecap="butt"/><path d="M -20.3 10.3 C -21 9.6 -22.4 8.2 -24.1 6.9 C -25.7 5.5 -26.5 5.1 -28.2 3.9 C -30 2.7 -30.8 2.3 -32.4 1 C -34 -0.3 -35.5 0.3 -36 -2.2 C -36.5 -4.7 -36.5 -8.4 -34.7 -11.1 C -32.8 -13.8 -29.3 -14.9 -26.8 -15.3 C -24.3 -15.8 -23.8 -13.8 -22.5 -13.1 C -21.3 -12.4 -21.6 -12.4 -20.9 -11.9 C -20.3 -11.5 -20 -11.2 -19.3 -10.8 C -18.6 -10.4 -17.8 -10.3 -17.3 -10.2 M -25.5 5.8 C -25.5 5.8 -25.5 5.8 -25.5 5.8 C -25.5 5.8 -25.5 5.8 -25.5 5.8 C -25.5 5.8 -25.5 5.8 -25.5 5.8 C -25.5 5.8 -25.5 5.8 -25.5 5.8 Z" fill="#ffffff" stroke="#1b1b1b" stroke-width="3.1" stroke-linejoin="round" stroke-linecap="butt"/><path d="M -17.4 19 L 17.4 19 C 20.4 19 22.8 21.4 22.8 24.4 L 22.8 26.6 C 22.8 29.6 20.4 32 17.4 32 L -17.4 32 C -20.4 32 -22.8 29.6 -22.8 26.6 L -22.8 24.4 C -22.8 21.4 -20.4 19 -17.4 19 Z" fill="#ffffff" stroke="#1b1b1b" stroke-width="3.1" stroke-linejoin="round" stroke-linecap="round"/></g><text y="80" text-anchor="middle" font-family="JetBrains Mono, ui-monospace, monospace" font-size="11" fill="currentColor">curl 0.75</text></g>
<g transform="translate(675 96)"><g transform="scale(1.55)"><path d="M -16 22 C -22.6 20.4 -19.4 18.1 -20 13 C -20.6 7.9 -20.8 -1.1 -19.4 -6 C -18 -10.9 -16 -11.6 -12.4 -13.5 C -8.8 -15.4 -4.5 -16.5 0 -16.5 C 4.5 -16.5 8.8 -15.4 12.4 -13.5 C 16 -11.6 18 -10.9 19.4 -6 C 20.8 -1.1 20.6 7.9 20 13 C 19.4 18.1 22.6 20.4 16 22 C 9.4 23.7 -9.4 23.7 -16 22 Z M -19.4 -6 C -19.4 -6 -19.4 -6 -19.4 -6 C -19.4 -6 -19.4 -6 -19.4 -6" fill="#ffffff" stroke="#1b1b1b" stroke-width="3.1" stroke-linejoin="round" stroke-linecap="round"/><path d="M -3.4 4.8 C -2.9 2.4 -1.3 -3.9 -0.6 -6.7 C 0.1 -9.5 -0.3 -7.9 -0.1 -8.7 C 0.1 -9.6 -0.1 -9.2 0.4 -10.8 C 1 -12.4 -0.1 -14.9 2.7 -16.5 C 5.4 -18.2 9.7 -20 13.7 -19 C 17.8 -17.9 20.7 -14.4 22.4 -11.6 C 24 -8.9 21.9 -7.2 21.6 -5.5 C 21.4 -3.8 21.3 -4.3 21.1 -3.4 C 20.9 -2.6 21.3 -4.2 20.6 -1.4 C 19.9 1.4 18.3 7.7 17.7 10.1 M -3.4 4.8 C -1.8 5.6 3.1 8.7 6.6 9.6 C 10.2 10.5 15.9 10 17.7 10.1 C 15.9 10 10.2 10.5 6.6 9.6 C 3.1 8.7 -1.8 5.6 -3.4 4.8 Z" fill="#ffffff" stroke="#1b1b1b" stroke-width="3.1" stroke-linejoin="round" stroke-linecap="butt"/><path d="M -11.4 8.3 C -11.4 5.7 -11.4 -1.3 -11.4 -4.3 C -11.4 -7.4 -11.4 -5.7 -11.4 -6.7 C -11.4 -7.6 -11.6 -7.2 -11.4 -9.1 C -11.3 -10.9 -13 -13.1 -10.6 -15.5 C -8.3 -17.9 -4.4 -20.7 0 -20.7 C 4.4 -20.7 8.3 -17.9 10.6 -15.5 C 13 -13.1 11.3 -10.9 11.4 -9.1 C 11.6 -7.2 11.4 -7.6 11.4 -6.7 C 11.4 -5.7 11.4 -7.4 11.4 -4.3 C 11.4 -1.3 11.4 5.7 11.4 8.3 M -11.4 8.3 C -9.5 8.6 -3.8 10.6 0 10.6 C 3.8 10.6 9.5 8.6 11.4 8.3 C 9.5 8.6 3.8 10.6 0 10.6 C -3.8 10.6 -9.5 8.6 -11.4 8.3 Z" fill="#ffffff" stroke="#1b1b1b" stroke-width="3.1" stroke-linejoin="round" stroke-linecap="butt"/><path d="M -17.9 10.7 C -18.5 8.2 -20.1 1.7 -20.8 -1.1 C -21.5 -4 -21.1 -2.3 -21.3 -3.2 C -21.5 -4.1 -21.6 -3.6 -21.9 -5.3 C -22.1 -7.1 -24.3 -8.8 -22.6 -11.6 C -20.9 -14.4 -17.9 -18.1 -13.8 -19.1 C -9.6 -20.1 -5.3 -18.4 -2.4 -16.6 C 0.4 -14.9 -0.7 -12.4 -0.2 -10.7 C 0.4 -9.1 0.1 -9.5 0.4 -8.6 C 0.6 -7.7 0.2 -9.4 0.9 -6.5 C 1.6 -3.7 3.2 2.8 3.8 5.3 M -17.9 10.7 C -16 10.6 -10.1 11.1 -6.5 10.2 C -2.9 9.3 2.1 6.1 3.8 5.3 C 2.1 6.1 -2.9 9.3 -6.5 10.2 C -10.1 11.1 -16 10.6 -17.9 10.7 Z" fill="#ffffff" stroke="#1b1b1b" stroke-width="3.1" stroke-linejoin="round" stroke-linecap="butt"/><path d="M -20.3 10.3 C -21 9.6 -22.4 8.2 -24.1 6.9 C -25.7 5.5 -26.5 5.1 -28.2 3.9 C -30 2.7 -30.8 2.3 -32.4 1 C -34 -0.3 -35.5 0.3 -36 -2.2 C -36.5 -4.7 -36.5 -8.4 -34.7 -11.1 C -32.8 -13.8 -29.3 -14.9 -26.8 -15.3 C -24.3 -15.8 -23.8 -13.8 -22.5 -13.1 C -21.3 -12.4 -21.6 -12.4 -20.9 -11.9 C -20.3 -11.5 -20 -11.2 -19.3 -10.8 C -18.6 -10.4 -17.8 -10.3 -17.3 -10.2 M -25.5 5.8 C -25.5 5.8 -25.5 5.8 -25.5 5.8 C -25.5 5.8 -25.5 5.8 -25.5 5.8 C -25.5 5.8 -25.5 5.8 -25.5 5.8 C -25.5 5.8 -25.5 5.8 -25.5 5.8 Z" fill="#ffffff" stroke="#1b1b1b" stroke-width="3.1" stroke-linejoin="round" stroke-linecap="butt"/><path d="M -17.4 19 L 17.4 19 C 20.4 19 22.8 21.4 22.8 24.4 L 22.8 26.6 C 22.8 29.6 20.4 32 17.4 32 L -17.4 32 C -20.4 32 -22.8 29.6 -22.8 26.6 L -22.8 24.4 C -22.8 21.4 -20.4 19 -17.4 19 Z" fill="#ffffff" stroke="#1b1b1b" stroke-width="3.1" stroke-linejoin="round" stroke-linecap="round"/></g><text y="80" text-anchor="middle" font-family="JetBrains Mono, ui-monospace, monospace" font-size="11" fill="currentColor">curl 1</text></g>
<g transform="translate(825 96)"><g transform="scale(1.55)"><path d="M -16 22 C -22.6 20.4 -19.4 18.1 -20 13 C -20.6 7.9 -20.8 -1.1 -19.4 -6 C -18 -10.9 -16 -11.6 -12.4 -13.5 C -8.8 -15.4 -4.5 -16.5 0 -16.5 C 4.5 -16.5 8.8 -15.4 12.4 -13.5 C 16 -11.6 18 -10.9 19.4 -6 C 20.8 -1.1 20.6 7.9 20 13 C 19.4 18.1 22.6 20.4 16 22 C 9.4 23.7 -9.4 23.7 -16 22 Z M -19.4 -6 C -19.4 -6 -19.4 -6 -19.4 -6 C -19.4 -6 -19.4 -6 -19.4 -6" fill="#ffffff" stroke="#1b1b1b" stroke-width="3.1" stroke-linejoin="round" stroke-linecap="round"/><path d="M 3.8 -16.2 C 4.2 -17.2 4.9 -18.9 5.5 -20.7 C 6.1 -22.6 6.2 -23.5 6.7 -25.4 C 7.2 -27.3 7.2 -28.2 7.8 -30 C 8.4 -31.9 7.4 -33.2 9.5 -34.5 C 11.7 -35.8 14.9 -37.1 18.1 -36.3 C 21.2 -35.5 23.5 -32.8 24.7 -30.7 C 26 -28.5 24.6 -28.4 24.1 -26 C 23.7 -23.6 23.1 -22 22.4 -19.1 C 21.8 -16.3 21.5 -15.1 20.9 -12.2 C 20.3 -9.3 19.8 -6.7 19.6 -5.2 M 5.4 -20.4 C 5.4 -20.4 5.4 -20.4 5.4 -20.4 C 5.4 -20.4 5.4 -20.4 5.4 -20.4 C 5.4 -20.4 5.4 -20.4 5.4 -20.4 C 5.4 -20.4 5.4 -20.4 5.4 -20.4 Z" fill="#ffffff" stroke="#1b1b1b" stroke-width="3.1" stroke-linejoin="round" stroke-linecap="butt"/><path d="M -9.4 -14.8 C -9.3 -16 -8.9 -18.2 -8.8 -20.6 C -8.7 -22.9 -8.8 -23.9 -8.8 -26.3 C -8.8 -28.6 -8.9 -29.8 -8.8 -32 C -8.7 -34.2 -10 -35.1 -8.2 -36.9 C -6.4 -38.8 -3.4 -41 0 -41 C 3.4 -41 6.4 -38.8 8.2 -36.9 C 10 -35.1 8.7 -34.2 8.8 -32 C 8.9 -29.8 8.8 -28.6 8.8 -26.3 C 8.8 -23.9 8.7 -22.9 8.8 -20.6 C 8.9 -18.2 9.3 -16 9.4 -14.8 M -8.8 -20.9 C -8.8 -20.9 -8.8 -20.9 -8.8 -20.9 C -8.8 -20.9 -8.8 -20.9 -8.8 -20.9 C -8.8 -20.9 -8.8 -20.9 -8.8 -20.9 C -8.8 -20.9 -8.8 -20.9 -8.8 -20.9 Z" fill="#ffffff" stroke="#1b1b1b" stroke-width="3.1" stroke-linejoin="round" stroke-linecap="butt"/><path d="M -19.7 -4.8 C -20 -6.3 -20.5 -9 -21.1 -12 C -21.7 -15 -22 -16.3 -22.7 -19.2 C -23.4 -22.2 -24 -23.9 -24.5 -26.4 C -24.9 -28.9 -26.3 -29 -25 -31.2 C -23.8 -33.4 -21.4 -36.2 -18.2 -37 C -15 -37.8 -11.7 -36.4 -9.5 -35.1 C -7.4 -33.8 -8.4 -32.5 -7.8 -30.6 C -7.2 -28.6 -7.1 -27.7 -6.6 -25.8 C -6.1 -23.8 -6 -22.9 -5.4 -20.9 C -4.7 -19 -3.9 -17.2 -3.6 -16.3 M -22 -16.5 C -22 -16.5 -22 -16.5 -22 -16.5 C -22 -16.5 -22 -16.5 -22 -16.5 C -22 -16.5 -22 -16.5 -22 -16.5 C -22 -16.5 -22 -16.5 -22 -16.5 Z" fill="#ffffff" stroke="#1b1b1b" stroke-width="3.1" stroke-linejoin="round" stroke-linecap="butt"/><path d="M -20.3 10.3 C -21 9.6 -22.4 8.2 -24.1 6.9 C -25.7 5.5 -26.5 5.1 -28.2 3.9 C -30 2.7 -30.8 2.3 -32.4 1 C -34 -0.3 -35.5 0.3 -36 -2.2 C -36.5 -4.7 -36.5 -8.4 -34.7 -11.1 C -32.8 -13.8 -29.3 -14.9 -26.8 -15.3 C -24.3 -15.8 -23.8 -13.8 -22.5 -13.1 C -21.3 -12.4 -21.6 -12.4 -20.9 -11.9 C -20.3 -11.5 -20 -11.2 -19.3 -10.8 C -18.6 -10.4 -17.8 -10.3 -17.3 -10.2 M -25.5 5.8 C -25.5 5.8 -25.5 5.8 -25.5 5.8 C -25.5 5.8 -25.5 5.8 -25.5 5.8 C -25.5 5.8 -25.5 5.8 -25.5 5.8 C -25.5 5.8 -25.5 5.8 -25.5 5.8 Z" fill="#ffffff" stroke="#1b1b1b" stroke-width="3.1" stroke-linejoin="round" stroke-linecap="butt"/><path d="M -17.4 19 L 17.4 19 C 20.4 19 22.8 21.4 22.8 24.4 L 22.8 26.6 C 22.8 29.6 20.4 32 17.4 32 L -17.4 32 C -20.4 32 -22.8 29.6 -22.8 26.6 L -22.8 24.4 C -22.8 21.4 -20.4 19 -17.4 19 Z" fill="#ffffff" stroke="#1b1b1b" stroke-width="3.1" stroke-linejoin="round" stroke-linecap="round"/></g><text y="80" text-anchor="middle" font-family="JetBrains Mono, ui-monospace, monospace" font-size="11" fill="currentColor">facing 0</text></g>
<g transform="translate(975 96)"><g transform="scale(1.55)"><path d="M-13.954 22 C-19.564 20.4 -16.859 18.067 -17.36 13 C-17.861 7.966 -18.028 -0.836 -16.859 -5.67 C-15.657 -10.504 -13.954 -11.336 -10.882 -13.17 C-7.843 -14.971 -4.17 -15.675 -0.33 -15.675 C3.51 -15.675 7.183 -14.971 10.222 -13.17 C13.294 -11.336 14.997 -10.504 16.199 -5.67 C17.368 -0.836 17.201 7.966 16.7 13 C16.199 18.067 18.904 20.4 13.294 22 C7.684 23.7 -8.344 23.7 -13.954 22 Z M-16.859 -5.67 C-16.859 -5.67 -16.859 -5.67 -16.859 -5.67 C-16.859 -5.67 -16.859 -5.67 -16.859 -5.67" fill="#ffffff" stroke="#1b1b1b" stroke-width="3.1" stroke-linejoin="round" stroke-linecap="round"/><path d="M-1.348 -12.075 C-1.146 -13.207 -0.743 -15.204 -0.473 -17.334 C-0.203 -19.531 -0.235 -20.53 -0.032 -22.727 C0.138 -24.924 0.006 -26.088 0.309 -28.02 C0.612 -30.019 -0.421 -30.923 1.382 -32.355 C3.219 -33.787 6.056 -35.351 9.058 -34.98 C12.026 -34.576 14.425 -32.338 15.79 -30.535 C17.222 -28.665 15.987 -28.301 15.784 -26.132 C15.615 -23.996 15.246 -22.66 14.876 -20.156 C14.573 -17.686 14.372 -16.651 14.102 -14.147 C13.832 -11.643 13.695 -9.373 13.66 -8.104 M-0.705 -18.189 C-0.705 -18.189 -0.705 -18.189 -0.705 -18.189 C-0.705 -18.189 -0.705 -18.189 -0.705 -18.189 C-0.705 -18.189 -0.705 -18.189 -0.705 -18.189 C-0.705 -18.189 -0.705 -18.189 -0.705 -18.189 Z" fill="#ffffff" stroke="#1b1b1b" stroke-width="3.1" stroke-linejoin="round" stroke-linecap="butt"/><path d="M-9.07 -13.876 C-8.97 -15.076 -8.669 -17.243 -8.602 -19.577 C-8.568 -21.877 -8.701 -22.844 -8.734 -25.211 C-8.8 -27.478 -8.933 -28.711 -8.866 -30.845 C-8.799 -32.946 -10.066 -33.714 -8.398 -35.448 C-6.73 -37.249 -3.961 -39.383 -0.759 -39.449 C2.41 -39.515 5.278 -37.513 7.012 -35.745 C8.746 -34.077 7.512 -33.309 7.678 -31.175 C7.811 -29.008 7.744 -27.709 7.81 -25.343 C7.876 -22.91 7.776 -21.877 7.942 -19.511 C8.108 -17.078 8.508 -14.845 8.641 -13.645 M-8.602 -19.646 C-8.602 -19.646 -8.602 -19.646 -8.602 -19.646 C-8.602 -19.646 -8.602 -19.646 -8.602 -19.646 C-8.602 -19.646 -8.602 -19.646 -8.602 -19.646 C-8.602 -19.646 -8.602 -19.646 -8.602 -19.646 Z" fill="#ffffff" stroke="#1b1b1b" stroke-width="3.1" stroke-linejoin="round" stroke-linecap="butt"/><path d="M-14.783 -7.77 C-14.951 -9.171 -15.154 -11.706 -15.49 -14.508 C-15.826 -17.31 -16.06 -18.511 -16.496 -21.246 C-16.932 -24.048 -17.367 -25.649 -17.636 -27.984 C-17.838 -30.352 -19.139 -30.617 -17.74 -32.586 C-16.441 -34.555 -13.975 -36.992 -10.874 -37.495 C-7.806 -37.998 -4.803 -36.433 -2.834 -35.034 C-0.932 -33.635 -1.965 -33.259 -1.563 -30.633 C-1.161 -27.973 -1.226 -25.72 -0.924 -22.335 C-0.622 -18.883 -0.489 -17.389 -0.153 -13.937 C0.283 -10.552 0.72 -7.432 0.888 -5.773 M-16.093 -17.424 C-16.093 -17.424 -16.093 -17.424 -16.093 -17.424 C-16.093 -17.424 -16.093 -17.424 -16.093 -17.424 C-16.093 -17.424 -16.093 -17.424 -16.093 -17.424 C-16.093 -17.424 -16.093 -17.424 -16.093 -17.424 Z" fill="#ffffff" stroke="#1b1b1b" stroke-width="3.1" stroke-linejoin="round" stroke-linecap="butt"/><path d="M-17.594 6.901 C-18.162 6.201 -19.265 4.768 -20.635 3.435 C-21.938 2.035 -22.606 1.602 -24.009 0.336 C-25.479 -0.93 -26.147 -1.33 -27.45 -2.729 C-28.786 -4.095 -30.319 -3.792 -30.456 -6.226 C-30.593 -8.66 -30.131 -12.162 -28.067 -14.466 C-25.903 -16.803 -22.469 -17.408 -20.035 -17.478 C-17.601 -17.582 -17.629 -16.044 -16.263 -14.816 C-14.964 -13.555 -14.835 -12.829 -13.706 -11.471 C-12.677 -10.147 -12.113 -9.583 -11.017 -8.259 C-9.921 -6.968 -8.857 -5.911 -8.192 -5.316 M-21.54 2.731 C-21.54 2.731 -21.54 2.731 -21.54 2.731 C-21.54 2.731 -21.54 2.731 -21.54 2.731 C-21.54 2.731 -21.54 2.731 -21.54 2.731 C-21.54 2.731 -21.54 2.731 -21.54 2.731 Z" fill="#ffffff" stroke="#1b1b1b" stroke-width="3.1" stroke-linejoin="round" stroke-linecap="butt"/><path d="M-15.651 19 L14.991 19 C17.991 19 20.391 21.4 20.391 24.4 L20.391 26.6 C20.391 29.6 17.991 32 14.991 32 L-15.651 32 C-18.651 32 -21.051 29.6 -21.051 26.6 L-21.051 24.4 C-21.051 21.4 -18.651 19 -15.651 19 Z" fill="#ffffff" stroke="#1b1b1b" stroke-width="3.1" stroke-linejoin="round" stroke-linecap="round"/></g><text y="80" text-anchor="middle" font-family="JetBrains Mono, ui-monospace, monospace" font-size="11" fill="currentColor">facing 0.33</text></g>
<g transform="translate(1125 96)"><g transform="scale(1.55)"><path d="M-11.908 22 C-16.528 20.4 -14.318 18.034 -14.72 13 C-15.122 8.032 -15.256 -0.572 -14.318 -5.34 C-13.314 -10.108 -11.908 -11.072 -9.364 -12.84 C-6.886 -14.542 -3.84 -14.85 -0.66 -14.85 C2.52 -14.85 5.566 -14.542 8.044 -12.84 C10.588 -11.072 11.994 -10.108 12.998 -5.34 C13.936 -0.572 13.802 8.032 13.4 13 C12.998 18.034 15.208 20.4 10.588 22 C5.968 23.7 -7.288 23.7 -11.908 22 Z M-14.318 -5.34 C-14.318 -5.34 -14.318 -5.34 -14.318 -5.34 C-14.318 -5.34 -14.318 -5.34 -14.318 -5.34" fill="#ffffff" stroke="#1b1b1b" stroke-width="3.1" stroke-linejoin="round" stroke-linecap="round"/><path d="M-6.496 -7.95 C-6.492 -9.214 -6.386 -11.508 -6.446 -13.968 C-6.506 -16.462 -6.67 -17.56 -6.764 -20.054 C-6.924 -22.548 -7.188 -23.976 -7.182 -26.04 C-7.176 -28.138 -8.242 -28.646 -6.736 -30.21 C-5.262 -31.774 -2.788 -33.602 0.016 -33.66 C2.852 -33.652 5.35 -31.876 6.88 -30.37 C8.444 -28.83 7.374 -28.202 7.468 -26.264 C7.53 -24.392 7.392 -23.32 7.352 -21.212 C7.346 -19.072 7.244 -18.202 7.304 -16.094 C7.364 -13.986 7.59 -12.046 7.72 -11.008 M-6.81 -15.978 C-6.81 -15.978 -6.81 -15.978 -6.81 -15.978 C-6.81 -15.978 -6.81 -15.978 -6.81 -15.978 C-6.81 -15.978 -6.81 -15.978 -6.81 -15.978 C-6.81 -15.978 -6.81 -15.978 -6.81 -15.978 Z" fill="#ffffff" stroke="#1b1b1b" stroke-width="3.1" stroke-linejoin="round" stroke-linecap="butt"/><path d="M-8.74 -12.952 C-8.64 -14.152 -8.438 -16.286 -8.404 -18.554 C-8.436 -20.854 -8.602 -21.788 -8.668 -24.122 C-8.8 -26.356 -8.966 -27.622 -8.932 -29.69 C-8.898 -31.692 -10.132 -32.328 -8.596 -33.996 C-7.06 -35.698 -4.522 -37.766 -1.518 -37.898 C1.42 -38.03 4.156 -36.226 5.824 -34.59 C7.492 -33.054 6.324 -32.418 6.556 -30.35 C6.722 -28.216 6.688 -26.818 6.82 -24.386 C6.952 -21.92 6.852 -20.854 7.084 -18.422 C7.316 -15.956 7.716 -13.69 7.882 -12.49 M-8.404 -18.392 C-8.404 -18.392 -8.404 -18.392 -8.404 -18.392 C-8.404 -18.392 -8.404 -18.392 -8.404 -18.392 C-8.404 -18.392 -8.404 -18.392 -8.404 -18.392 C-8.404 -18.392 -8.404 -18.392 -8.404 -18.392 Z" fill="#ffffff" stroke="#1b1b1b" stroke-width="3.1" stroke-linejoin="round" stroke-linecap="butt"/><path d="M-9.866 -10.74 C-9.902 -12.042 -9.808 -14.412 -9.88 -17.016 C-9.952 -19.62 -10.12 -20.722 -10.292 -23.292 C-10.464 -25.896 -10.734 -27.398 -10.772 -29.568 C-10.776 -31.804 -11.978 -32.234 -10.48 -33.972 C-9.082 -35.71 -6.55 -37.784 -3.548 -37.99 C-0.612 -38.196 2.094 -36.466 3.832 -34.968 C5.536 -33.47 4.47 -34.018 4.674 -30.666 C4.878 -27.346 4.648 -23.74 4.752 -18.87 C4.856 -13.966 5.022 -11.878 5.094 -6.974 C5.266 -2.104 5.34 2.336 5.376 4.754 M-10.186 -18.348 C-10.186 -18.348 -10.186 -18.348 -10.186 -18.348 C-10.186 -18.348 -10.186 -18.348 -10.186 -18.348 C-10.186 -18.348 -10.186 -18.348 -10.186 -18.348 C-10.186 -18.348 -10.186 -18.348 -10.186 -18.348 Z" fill="#ffffff" stroke="#1b1b1b" stroke-width="3.1" stroke-linejoin="round" stroke-linecap="butt"/><path d="M-14.888 3.502 C-15.324 2.802 -16.13 1.336 -17.17 -0.03 C-18.176 -1.43 -18.712 -1.896 -19.818 -3.228 C-20.958 -4.56 -21.494 -4.96 -22.5 -6.458 C-23.572 -7.89 -25.138 -7.884 -24.912 -10.252 C-24.686 -12.62 -23.762 -15.924 -21.434 -17.832 C-19.006 -19.806 -15.638 -19.916 -13.27 -19.656 C-10.902 -19.364 -11.458 -18.288 -10.026 -16.532 C-8.628 -14.71 -8.07 -13.258 -6.512 -11.042 C-5.054 -8.794 -4.226 -7.966 -2.734 -5.718 C-1.242 -3.536 0.086 -1.522 0.916 -0.432 M-17.58 -0.338 C-17.58 -0.338 -17.58 -0.338 -17.58 -0.338 C-17.58 -0.338 -17.58 -0.338 -17.58 -0.338 C-17.58 -0.338 -17.58 -0.338 -17.58 -0.338 C-17.58 -0.338 -17.58 -0.338 -17.58 -0.338 Z" fill="#ffffff" stroke="#1b1b1b" stroke-width="3.1" stroke-linejoin="round" stroke-linecap="butt"/><path d="M-13.902 19 L12.582 19 C15.582 19 17.982 21.4 17.982 24.4 L17.982 26.6 C17.982 29.6 15.582 32 12.582 32 L-13.902 32 C-16.902 32 -19.302 29.6 -19.302 26.6 L-19.302 24.4 C-19.302 21.4 -16.902 19 -13.902 19 Z" fill="#ffffff" stroke="#1b1b1b" stroke-width="3.1" stroke-linejoin="round" stroke-linecap="round"/></g><text y="80" text-anchor="middle" font-family="JetBrains Mono, ui-monospace, monospace" font-size="11" fill="currentColor">facing 0.66</text></g>
<g transform="translate(1275 96)"><g transform="scale(1.55)"><path d="M -9.8 22 C -13.4 20.4 -11.7 18 -12 13 C -12.3 8.1 -12.4 -0.3 -11.7 -5 C -10.9 -9.7 -9.8 -10.8 -7.8 -12.5 C -5.9 -14.1 -3.5 -14 -1 -14 C 1.5 -14 3.9 -14.1 5.8 -12.5 C 7.8 -10.8 8.9 -9.7 9.7 -5 C 10.4 -0.3 10.3 8.1 10 13 C 9.7 18 11.4 20.4 7.8 22 C 4.2 23.7 -6.2 23.7 -9.8 22 Z M -11.7 -5 C -11.7 -5 -11.7 -5 -11.7 -5 C -11.7 -5 -11.7 -5 -11.7 -5" fill="#ffffff" stroke="#1b1b1b" stroke-width="3.1" stroke-linejoin="round" stroke-linecap="round"/><path d="M -11.8 -3.7 C -12 -5.1 -12.2 -7.7 -12.6 -10.5 C -13 -13.3 -13.3 -14.5 -13.7 -17.3 C -14.2 -20.1 -14.6 -21.8 -14.9 -24 C -15.2 -26.2 -16.3 -26.3 -15.1 -28 C -14 -29.7 -11.9 -31.8 -9.3 -32.3 C -6.6 -32.7 -4 -31.4 -2.3 -30.2 C -0.6 -29 -1.5 -28.1 -1.1 -26.4 C -0.8 -24.8 -0.7 -24 -0.4 -22.3 C -0.1 -20.5 -0.1 -19.8 0.3 -18.1 C 0.7 -16.4 1.3 -14.8 1.6 -14 M -13.1 -13.7 C -13.1 -13.7 -13.1 -13.7 -13.1 -13.7 C -13.1 -13.7 -13.1 -13.7 -13.1 -13.7 C -13.1 -13.7 -13.1 -13.7 -13.1 -13.7 C -13.1 -13.7 -13.1 -13.7 -13.1 -13.7 Z" fill="#ffffff" stroke="#1b1b1b" stroke-width="3.1" stroke-linejoin="round" stroke-linecap="butt"/><path d="M -8.4 -12 C -8.3 -13.2 -8.2 -15.3 -8.2 -17.5 C -8.3 -19.8 -8.5 -20.7 -8.6 -23 C -8.8 -25.2 -9 -26.5 -9 -28.5 C -9 -30.4 -10.2 -30.9 -8.8 -32.5 C -7.4 -34.1 -5.1 -36.1 -2.3 -36.3 C 0.4 -36.5 3 -34.9 4.6 -33.4 C 6.2 -32 5.1 -31.5 5.4 -29.5 C 5.6 -27.4 5.6 -25.9 5.8 -23.4 C 6 -20.9 5.9 -19.8 6.2 -17.3 C 6.5 -14.8 6.9 -12.5 7.1 -11.3 M -8.2 -17.1 C -8.2 -17.1 -8.2 -17.1 -8.2 -17.1 C -8.2 -17.1 -8.2 -17.1 -8.2 -17.1 C -8.2 -17.1 -8.2 -17.1 -8.2 -17.1 C -8.2 -17.1 -8.2 -17.1 -8.2 -17.1 Z" fill="#ffffff" stroke="#1b1b1b" stroke-width="3.1" stroke-linejoin="round" stroke-linecap="butt"/><path d="M -4.8 -13.8 C -4.7 -15 -4.3 -17.2 -4.1 -19.6 C -3.9 -22 -4 -23 -3.9 -25.4 C -3.8 -27.8 -3.9 -29.2 -3.7 -31.2 C -3.5 -33.3 -4.6 -33.9 -3 -35.4 C -1.5 -36.9 1.1 -38.6 4 -38.5 C 6.8 -38.4 9.2 -36.5 10.7 -34.9 C 12.2 -33.3 11.1 -34.8 11.1 -30.7 C 11.1 -26.7 10.7 -21.7 10.6 -15.3 C 10.5 -8.9 10.7 -6.2 10.5 0.2 C 10.4 6.6 10.1 12.4 10 15.6 M -4.1 -19.3 C -4.1 -19.3 -4.1 -19.3 -4.1 -19.3 C -4.1 -19.3 -4.1 -19.3 -4.1 -19.3 C -4.1 -19.3 -4.1 -19.3 -4.1 -19.3 C -4.1 -19.3 -4.1 -19.3 -4.1 -19.3 Z" fill="#ffffff" stroke="#1b1b1b" stroke-width="3.1" stroke-linejoin="round" stroke-linecap="butt"/><path d="M -12.1 0 C -12.4 -0.7 -12.9 -2.2 -13.6 -3.6 C -14.3 -5 -14.7 -5.5 -15.5 -6.9 C -16.3 -8.3 -16.7 -8.7 -17.4 -10.3 C -18.2 -11.8 -19.8 -12.1 -19.2 -14.4 C -18.6 -16.7 -17.2 -19.8 -14.6 -21.3 C -11.9 -22.9 -8.6 -22.5 -6.3 -21.9 C -4 -21.2 -5.1 -20.6 -3.6 -18.3 C -2.1 -15.9 -1.1 -13.7 0.9 -10.6 C 2.8 -7.4 3.9 -6.3 5.8 -3.1 C 7.7 0 9.3 3 10.3 4.6 M -13.5 -3.5 C -13.5 -3.5 -13.5 -3.5 -13.5 -3.5 C -13.5 -3.5 -13.5 -3.5 -13.5 -3.5 C -13.5 -3.5 -13.5 -3.5 -13.5 -3.5 C -13.5 -3.5 -13.5 -3.5 -13.5 -3.5 Z" fill="#ffffff" stroke="#1b1b1b" stroke-width="3.1" stroke-linejoin="round" stroke-linecap="butt"/><path d="M -12.1 19 L 10.1 19 C 13.1 19 15.5 21.4 15.5 24.4 L 15.5 26.6 C 15.5 29.6 13.1 32 10.1 32 L -12.1 32 C -15.1 32 -17.5 29.6 -17.5 26.6 L -17.5 24.4 C -17.5 21.4 -15.1 19 -12.1 19 Z" fill="#ffffff" stroke="#1b1b1b" stroke-width="3.1" stroke-linejoin="round" stroke-linecap="round"/></g><text y="80" text-anchor="middle" font-family="JetBrains Mono, ui-monospace, monospace" font-size="11" fill="currentColor">facing 1</text></g>
</svg>