<svg xmlns="http://www.w3.org/2000/svg" viewBox="0 0 200 200" width="200" height="200" data-hand-pivot="100 100"><g id="handLeftDraw-point" data-name="Pointing"><path id="handLeftDraw-pointPalm" data-name="Palm" d="M 68 144 C 54.8 140.7 61.2 136.3 60 126 C 58.8 115.7 58.4 97.7 61.2 88 C 64 78.3 68.1 76.9 75.2 73 C 82.3 69.2 90.9 67 100 67 C 109.1 67 117.7 69.2 124.8 73 C 131.9 76.9 136 78.3 138.8 88 C 141.6 97.7 141.2 115.7 140 126 C 138.8 136.3 145.2 140.7 132 144 C 118.8 147.3 81.2 147.3 68 144 Z M 61.2 88 C 61.2 88 61.2 88 61.2 88 C 61.2 88 61.2 88 61.2 88" fill="#ffffff" stroke="#1b1b1b" stroke-width="6.2" stroke-linejoin="round" stroke-linecap="round" /><path id="handLeftDraw-pointRing" data-name="Ring" d="M 93.1 109.6 C 94.3 104.9 97.5 92.2 98.9 86.6 C 100.3 81 99.4 84.2 99.9 82.5 C 100.3 80.9 99.8 81.6 100.9 78.4 C 102 75.2 99.8 70.3 105.3 66.9 C 110.8 63.5 119.3 60 127.5 62.1 C 135.6 64.1 141.5 71.2 144.8 76.7 C 148 82.3 143.8 85.6 143.3 89 C 142.8 92.4 142.7 91.4 142.2 93.1 C 141.8 94.8 142.6 91.5 141.2 97.1 C 139.8 102.7 136.7 115.4 135.5 120.2 M 93.1 109.6 C 96.5 111.2 106.2 117.4 113.2 119.2 C 120.3 120.9 131.8 120 135.5 120.2 C 131.8 120 120.3 120.9 113.2 119.2 C 106.2 117.4 96.5 111.2 93.1 109.6 Z" fill="#ffffff" stroke="#1b1b1b" stroke-width="6.2" stroke-linejoin="round" stroke-linecap="butt" /><path id="handLeftDraw-pointMiddle" data-name="Middle" d="M 77.1 116.5 C 77.1 111.3 77.1 97.5 77.1 91.3 C 77.1 85.1 77.1 88.6 77.1 86.7 C 77.1 84.7 76.8 85.5 77.1 81.9 C 77.5 78.2 74 73.9 78.7 69.1 C 83.5 64.2 91.2 58.5 100 58.5 C 108.8 58.5 116.5 64.2 121.3 69.1 C 126 73.9 122.5 78.2 122.9 81.9 C 123.2 85.5 122.9 84.7 122.9 86.7 C 122.9 88.6 122.9 85.1 122.9 91.3 C 122.9 97.5 122.9 111.3 122.9 116.5 M 77.1 116.5 C 80.9 117.3 92.4 121.1 100 121.1 C 107.6 121.1 119.1 117.3 122.9 116.5 C 119.1 117.3 107.6 121.1 100 121.1 C 92.4 121.1 80.9 117.3 77.1 116.5 Z" fill="#ffffff" stroke="#1b1b1b" stroke-width="6.2" stroke-linejoin="round" stroke-linecap="butt" /><path id="handLeftDraw-pointIndex" data-name="Index" d="M 59.3 101.1 C 59 96.4 58.1 87.9 57.7 78.5 C 57.3 69.2 57.8 65.2 57.4 55.9 C 56.9 46.5 56 40 55.8 33.3 C 55.6 26.6 53 27.5 56.3 23.6 C 59.6 19.7 65.1 15.1 71.7 14.6 C 78.3 14.1 84.4 18 88.2 21.4 C 92 24.8 89.5 26.4 90.1 30.9 C 90.7 35.4 90.6 38 90.9 43.1 C 91.3 48.1 91.2 50.2 91.8 55.3 C 92.4 60.3 93.4 64.8 93.8 67.3 M 57.6 59.6 C 57.6 59.6 57.6 59.6 57.6 59.6 C 57.6 59.6 57.6 59.6 57.6 59.6 C 57.6 59.6 57.6 59.6 57.6 59.6 C 57.6 59.6 57.6 59.6 57.6 59.6 Z" fill="#ffffff" stroke="#1b1b1b" stroke-width="6.2" stroke-linejoin="round" stroke-linecap="butt" /><path id="handLeftDraw-pointThumb" data-name="Thumb" d="M 46.1 74.8 C 51.9 74.3 66.1 73 74.2 72.4 C 82.3 71.9 80.7 72.2 85.4 72.2 C 90 72.3 92.5 72.2 96.8 72.7 C 101.2 73.2 103 70.8 106.3 74.6 C 109.7 78.3 113.5 84.4 113.1 91 C 112.6 97.6 108 103.1 104.1 106.4 C 100.3 109.6 98.4 106.9 94.5 106.9 C 90.5 106.9 88.8 106.6 85 106.5 C 81.1 106.5 82.4 105.9 75.8 106.7 C 69.2 107.5 57.8 109.7 53.1 110.4 M 53.1 110.4 C 51.9 107.5 47.4 98.9 46.2 93 C 45 87 46.1 77.8 46.1 74.8 C 46.1 77.8 45 87 46.2 93 C 47.4 98.9 51.9 107.5 53.1 110.4 Z" fill="#ffffff" stroke="#1b1b1b" stroke-width="6.2" stroke-linejoin="round" stroke-linecap="butt" /><path id="handLeftDraw-pointCuff" data-name="Cuff" d="M 65.2 138 L 134.8 138 C 140.8 138 145.6 142.8 145.6 148.8 L 145.6 153.2 C 145.6 159.2 140.8 164 134.8 164 L 65.2 164 C 59.2 164 54.4 159.2 54.4 153.2 L 54.4 148.8 C 54.4 142.8 59.2 138 65.2 138 Z" fill="#ffffff" stroke="#1b1b1b" stroke-width="6.2" stroke-linejoin="round" stroke-linecap="round" /></g></svg>
