<svg xmlns="http://www.w3.org/2000/svg" viewBox="0 0 200 200" width="200" height="200" data-hand-pivot="100 100"><g id="handRightDraw-point-anim" data-name="Pointing · Bend the finger"><path id="handRightDraw-pointPalm" data-name="Palm" d="M 132 144 C 145.2 140.7 138.8 136.3 140 126 C 141.2 115.7 141.6 97.7 138.8 88 C 136 78.3 131.9 76.9 124.8 73 C 117.7 69.2 109.1 67 100 67 C 90.9 67 82.3 69.2 75.2 73 C 68.1 76.9 64 78.3 61.2 88 C 58.4 97.7 58.8 115.7 60 126 C 61.2 136.3 54.8 140.7 68 144 C 81.2 147.3 118.8 147.3 132 144 Z M 138.8 88 C 138.8 88 138.8 88 138.8 88 C 138.8 88 138.8 88 138.8 88" fill="#ffffff" stroke="#1b1b1b" stroke-width="6.2" stroke-linejoin="round" stroke-linecap="round" /><path id="handRightDraw-pointRing" data-name="Ring" d="M 99.8 114.5 C 99.1 110 97.2 98 96.3 92.5 C 95.4 87 95.9 89.9 95.6 88 C 95.3 86.2 95.7 86.6 94.9 83.4 C 94.1 80.3 96.5 76.2 91.8 72.7 C 87.1 69.3 79.7 65.4 72.2 66.6 C 64.7 67.8 58.9 73.7 55.5 78.5 C 52.1 83.2 55.6 86.4 55.8 89.6 C 56.1 92.9 56.3 92.3 56.6 94.2 C 56.9 96.1 56.4 93.2 57.3 98.7 C 58.1 104.2 60 116.1 60.8 120.7 M 99.8 114.5 C 96.6 115.7 87.4 120.5 80.9 121.5 C 74.4 122.5 64.1 120.8 60.8 120.7 C 64.1 120.8 74.4 122.5 80.9 121.5 C 87.4 120.5 96.6 115.7 99.8 114.5 Z" fill="#ffffff" stroke="#1b1b1b" stroke-width="6.2" stroke-linejoin="round" stroke-linecap="butt" /><path id="handRightDraw-pointMiddle" data-name="Middle" d="M 120.5 118.5 C 120.5 113.6 120.5 100.8 120.5 94.8 C 120.5 88.8 120.5 91.7 120.5 89.5 C 120.5 87.3 120.8 87.6 120.5 84.1 C 120.2 80.6 123.3 76.9 119.1 72.6 C 114.9 68.2 107.9 63.1 100 63.1 C 92.1 63.1 85.1 68.2 80.9 72.6 C 76.7 76.9 79.8 80.6 79.5 84.1 C 79.2 87.6 79.5 87.3 79.5 89.5 C 79.5 91.7 79.5 88.8 79.5 94.8 C 79.5 100.8 79.5 113.6 79.5 118.5 M 120.5 118.5 C 117.1 119.2 106.8 122.6 100 122.6 C 93.2 122.6 82.9 119.2 79.5 118.5 C 82.9 119.2 93.2 122.6 100 122.6 C 106.8 122.6 117.1 119.2 120.5 118.5 Z" fill="#ffffff" stroke="#1b1b1b" stroke-width="6.2" stroke-linejoin="round" stroke-linecap="butt" /><path id="handRightDraw-pointIndex" data-name="Index" d="M 140.4 135.5 C 140.8 130.3 141.6 120.8 142.2 110.3 C 142.8 99.9 142.7 95.5 143.3 85.1 C 143.9 74.6 144.8 67.1 145 59.8 C 145.3 52.6 147.9 53.8 144.5 49.9 C 141.1 45.9 135.4 41.1 128.6 40.6 C 121.8 40.1 115.5 44.1 111.6 47.6 C 107.7 51 110.1 54.6 109.7 57.4 C 109.2 60.1 109.6 59.4 109.5 60.8 C 109.4 62.2 109.5 62.8 109.2 64.2 C 109 65.7 108.5 66.9 108.3 67.6 M 144.5 67.5 C 144.5 67.5 144.5 67.5 144.5 67.5 C 144.5 67.5 144.5 67.5 144.5 67.5 C 144.5 67.5 144.5 67.5 144.5 67.5 C 144.5 67.5 144.5 67.5 144.5 67.5 Z" fill="#ffffff" stroke="#1b1b1b" stroke-width="6.2" stroke-linejoin="round" stroke-linecap="butt" /><path id="handRightDraw-pointThumb" data-name="Thumb" d="M 153.9 74.8 C 148.1 74.3 133.9 73 125.8 72.4 C 117.7 71.9 119.3 72.2 114.6 72.2 C 110 72.3 107.5 72.2 103.2 72.7 C 98.8 73.2 97 70.8 93.7 74.6 C 90.3 78.3 86.5 84.4 86.9 91 C 87.4 97.6 92 103.1 95.9 106.4 C 99.7 109.6 101.6 106.9 105.5 106.9 C 109.5 106.9 111.2 106.6 115 106.5 C 118.9 106.5 117.6 105.9 124.2 106.7 C 130.8 107.5 142.2 109.7 146.9 110.4 M 146.9 110.4 C 148.1 107.5 152.6 98.9 153.8 93 C 155 87 153.9 77.8 153.9 74.8 C 153.9 77.8 155 87 153.8 93 C 152.6 98.9 148.1 107.5 146.9 110.4 Z" fill="#ffffff" stroke="#1b1b1b" stroke-width="6.2" stroke-linejoin="round" stroke-linecap="butt" /><path id="handRightDraw-pointCuff" data-name="Cuff" d="M 134.8 138 L 65.2 138 C 59.2 138 54.4 142.8 54.4 148.8 L 54.4 153.2 C 54.4 159.2 59.2 164 65.2 164 L 134.8 164 C 140.8 164 145.6 159.2 145.6 153.2 L 145.6 148.8 C 145.6 142.8 140.8 138 134.8 138 Z" fill="#ffffff" stroke="#1b1b1b" stroke-width="6.2" stroke-linejoin="round" stroke-linecap="round" /></g></svg>
